<svg width="29" height="29" viewBox="0 0 29 29" fill="none" xmlns="http://www.w3.org/2000/svg">
<circle cx="14.5" cy="14.5" r="14.5" fill="white"/>
<path d="M24 18.5V9.5C24 8.67 23.2516 8 22.3245 8H6.67548C5.74838 8 5 8.67 5 9.5V18.5C5 19.33 5.74838 20 6.67548 20H22.3245C23.2516 20 24 19.33 24 18.5ZM22.5367 9.39C22.9053 9.72 22.7043 10.06 22.5032 10.23L17.9683 13.95L22.3245 18.01C22.4586 18.15 22.5479 18.37 22.3915 18.52C22.2463 18.68 21.9112 18.67 21.766 18.57L16.8848 14.84L14.4944 16.79L12.1152 14.84L7.23398 18.57C7.08877 18.67 6.75367 18.68 6.60847 18.52C6.45209 18.37 6.54145 18.15 6.67548 18.01L11.0317 13.95L6.49677 10.23C6.29571 10.06 6.09465 9.72 6.46326 9.39C6.83186 9.06 7.21164 9.22 7.5244 9.46L14.4944 14.5L21.4756 9.46C21.7884 9.22 22.1681 9.06 22.5367 9.39Z" fill="#E30512"/>
</svg>
